<svg width="39" height="30" viewBox="0 0 39 30" fill="none" xmlns="http://www.w3.org/2000/svg">
<path d="M36.418 23.2969C36.543 24.8177 36.194 25.9792 35.3711 26.7812C34.5586 27.5833 33.3086 27.9844 31.6211 27.9844H6.93359C5.53776 27.9844 4.47526 27.6042 3.74609 26.8438C3.02734 26.0833 2.64714 24.974 2.60547 23.5156L8.46484 18.2969C8.78776 18.0052 9.11068 17.7917 9.43359 17.6562C9.75651 17.5104 10.1055 17.4375 10.4805 17.4375C10.8346 17.4375 11.1888 17.5156 11.543 17.6719C11.9076 17.8177 12.2565 18.0312 12.5898 18.3125L15.4648 20.9062L22.5117 14.6094C22.8763 14.2969 23.2513 14.0677 23.6367 13.9219C24.0221 13.7656 24.4284 13.6875 24.8555 13.6875C25.2721 13.6875 25.6784 13.7656 26.0742 13.9219C26.4701 14.0781 26.8398 14.3177 27.1836 14.6406L36.418 23.2969ZM13.3867 15.125C12.6888 15.125 12.0534 14.9531 11.4805 14.6094C10.9076 14.2656 10.4492 13.8073 10.1055 13.2344C9.76172 12.651 9.58984 12.0104 9.58984 11.3125C9.58984 10.625 9.76172 9.99479 10.1055 9.42188C10.4492 8.83854 10.9076 8.375 11.4805 8.03125C12.0534 7.6875 12.6888 7.51562 13.3867 7.51562C14.0846 7.51562 14.7148 7.6875 15.2773 8.03125C15.8503 8.375 16.3086 8.83854 16.6523 9.42188C16.9961 9.99479 17.168 10.625 17.168 11.3125C17.168 12.0104 16.9961 12.651 16.6523 13.2344C16.3086 13.8073 15.8503 14.2656 15.2773 14.6094C14.7148 14.9531 14.0846 15.125 13.3867 15.125ZM6.23047 29.4688C4.5013 29.4688 3.18359 29.0208 2.27734 28.125C1.38151 27.2292 0.933594 25.9323 0.933594 24.2344V5.25C0.933594 3.53125 1.38151 2.22917 2.27734 1.34375C3.18359 0.447917 4.5013 0 6.23047 0H32.7773C34.5065 0 35.819 0.447917 36.7148 1.34375C37.6107 2.23958 38.0586 3.54167 38.0586 5.25V24.2344C38.0586 25.9323 37.6107 27.2292 36.7148 28.125C35.819 29.0208 34.5065 29.4688 32.7773 29.4688H6.23047ZM6.51172 25.9844H32.4805C33.1576 25.9844 33.6784 25.8125 34.043 25.4688C34.4076 25.1146 34.5898 24.5781 34.5898 23.8594V5.60938C34.5898 4.89062 34.4076 4.35417 34.043 4C33.6784 3.64583 33.1576 3.46875 32.4805 3.46875H6.51172C5.82422 3.46875 5.29818 3.64583 4.93359 4C4.57943 4.35417 4.40234 4.89062 4.40234 5.60938V23.8594C4.40234 24.5781 4.57943 25.1146 4.93359 25.4688C5.29818 25.8125 5.82422 25.9844 6.51172 25.9844Z" fill="#DDDAE5"/>
</svg>
