<svg width="25" height="24" viewBox="0 0 25 24" fill="none" xmlns="http://www.w3.org/2000/svg">
<path d="M12.7604 4.74709C12.6906 4.68033 12.5978 4.64307 12.5012 4.64307C12.4046 4.64307 12.3118 4.68033 12.242 4.74709L3.6123 12.991C3.57566 13.0261 3.5465 13.0682 3.5266 13.1148C3.5067 13.1615 3.49647 13.2117 3.49652 13.2624L3.49512 20.9996C3.49512 21.3974 3.65315 21.7789 3.93446 22.0602C4.21576 22.3416 4.59729 22.4996 4.99512 22.4996H9.49981C9.69872 22.4996 9.88948 22.4206 10.0301 22.2799C10.1708 22.1393 10.2498 21.9485 10.2498 21.7496V15.3746C10.2498 15.2751 10.2893 15.1797 10.3596 15.1094C10.43 15.0391 10.5254 14.9996 10.6248 14.9996H14.3748C14.4743 14.9996 14.5696 15.0391 14.64 15.1094C14.7103 15.1797 14.7498 15.2751 14.7498 15.3746V21.7496C14.7498 21.9485 14.8288 22.1393 14.9695 22.2799C15.1101 22.4206 15.3009 22.4996 15.4998 22.4996H20.0026C20.4004 22.4996 20.782 22.3416 21.0633 22.0602C21.3446 21.7789 21.5026 21.3974 21.5026 20.9996V13.2624C21.5027 13.2117 21.4924 13.1615 21.4725 13.1148C21.4526 13.0682 21.4235 13.0261 21.3868 12.991L12.7604 4.74709Z" fill="#B3B3B3"/>
<path d="M23.5112 11.4461L20.0049 8.09168V3.00153C20.0049 2.80261 19.9259 2.61185 19.7853 2.4712C19.6446 2.33054 19.4538 2.25153 19.2549 2.25153H17.0049C16.806 2.25153 16.6153 2.33054 16.4746 2.4712C16.334 2.61185 16.2549 2.80261 16.2549 3.00153V4.50153L13.5399 1.90559C13.2859 1.64871 12.9081 1.50153 12.4998 1.50153C12.0929 1.50153 11.716 1.64871 11.462 1.90606L1.49165 11.4451C1.20009 11.7264 1.16352 12.189 1.42884 12.4937C1.49546 12.5706 1.57704 12.6332 1.6686 12.6775C1.76017 12.7219 1.8598 12.7472 1.96145 12.7519C2.0631 12.7565 2.16462 12.7404 2.25986 12.7046C2.35509 12.6687 2.44203 12.6139 2.5154 12.5434L12.242 3.24903C12.3118 3.18227 12.4046 3.14501 12.5012 3.14501C12.5978 3.14501 12.6906 3.18227 12.7604 3.24903L22.4879 12.5434C22.6312 12.6808 22.8231 12.7558 23.0216 12.7519C23.2201 12.7481 23.409 12.6657 23.5468 12.5228C23.8346 12.2247 23.8107 11.7325 23.5112 11.4461Z" fill="#B3B3B3"/>
</svg>
