<svg width="162" height="182" viewBox="0 0 162 182" fill="none" xmlns="http://www.w3.org/2000/svg">
<path d="M128.693 117.893L127.09 116.667C148.423 88.6576 159.702 55.1973 159.702 19.8885C159.702 -34.8098 132.183 -85.1323 86.0853 -114.726L87.1793 -116.424C133.862 -86.4715 161.72 -35.5077 161.72 19.8885C161.72 55.6311 150.29 89.5252 128.693 117.893Z" fill="#66BABA" fill-opacity="0.2"/>
<path d="M-0.130585 181.739C-89.3832 181.739 -162 109.122 -162 19.8694C-162 -69.3832 -89.3832 -142 -0.130585 -142V-139.982C-88.2704 -139.982 -159.963 -68.2704 -159.963 19.8505C-159.963 107.99 -88.2515 179.683 -0.130585 179.683C26.5019 179.683 52.8702 173.006 76.1076 160.369L77.0695 162.142C53.5304 174.986 26.8225 181.739 -0.130585 181.739Z" fill="#66BABA" fill-opacity="0.2"/>
<path d="M-0.130604 166.122C-16.1629 166.122 -31.9122 163.538 -46.9637 158.464L-45.6623 154.635C-31.0257 159.577 -15.7102 162.085 -0.111782 162.085C73.1274 162.085 133.956 107.217 141.331 34.4495L145.367 34.8644C137.747 109.669 75.2022 166.122 -0.130604 166.122Z" fill="#66BABA" fill-opacity="0.2"/>
<path d="M-0.130577 125.494C-58.3749 125.494 -105.755 78.1136 -105.755 19.8692C-105.755 -3.70764 -98.1538 -26.0019 -83.8002 -44.5994L-80.5938 -42.1285C-94.4004 -24.2289 -101.7 -2.80229 -101.7 19.8692C-101.7 75.869 -56.1304 121.438 -0.130577 121.438C9.80943 121.438 19.6363 120.005 29.0482 117.176L30.2176 121.061C20.4096 124.022 10.1867 125.494 -0.130577 125.494Z" fill="#66BABA" fill-opacity="0.2"/>
<path d="M71.2036 97.7673L68.4687 94.7872C89.4238 75.5862 101.439 48.2936 101.439 19.8882C101.439 -0.105007 95.6292 -19.4569 84.6518 -36.0739L88.0281 -38.2996C99.4581 -21.0224 105.494 -0.897228 105.494 19.907C105.475 49.4253 92.9887 77.8119 71.2036 97.7673Z" fill="#66BABA" fill-opacity="0.2"/>
<path d="M-0.130604 107.349C-14.3522 107.349 -28.4795 103.86 -40.9658 97.258L-40.0227 95.4662C-27.8193 101.917 -14.0316 105.331 -0.149483 105.331C38.196 105.331 72.0712 79.547 82.2375 42.6162L84.1803 43.1632C73.8064 80.9617 39.1202 107.349 -0.130604 107.349Z" fill="#66BABA" fill-opacity="0.2"/>
<path d="M-61.9775 81.7538C-78.5001 65.2311 -87.6102 43.2575 -87.6102 19.8881C-87.6102 -28.3408 -48.3783 -67.5916 -0.130577 -67.5916C48.0983 -67.5916 87.3491 -28.3408 87.3491 19.8881H85.3309C85.3309 -27.2279 47.0043 -65.5545 -0.111755 -65.5545C-47.2278 -65.5545 -85.5543 -27.2279 -85.5543 19.8881C-85.5543 42.7105 -76.6706 64.1749 -60.5063 80.3204L-61.9775 81.7538Z" fill="#66BABA" fill-opacity="0.2"/>
<path d="M-0.130577 74.2847C-30.1392 74.2847 -54.546 49.8779 -54.546 19.8693C-54.546 -10.1393 -30.1392 -34.5461 -0.130577 -34.5461V-30.4909C-27.8947 -30.4909 -50.4908 -7.89483 -50.4908 19.8693C-50.4908 47.6334 -27.8947 70.2295 -0.130577 70.2295C27.6336 70.2295 50.2296 47.6334 50.2296 19.8693H54.2849C54.266 49.8779 29.8592 74.2847 -0.130577 74.2847Z" fill="#66BABA" fill-opacity="0.2"/>
<path d="M-0.130577 46.9168C-15.05 46.9168 -27.178 34.7889 -27.178 19.8694H-25.1598C-25.1598 33.6572 -13.9372 44.8798 -0.149458 44.8798C13.6383 44.8798 24.8609 33.6572 24.8609 19.8694C24.8609 6.08165 13.6383 -5.14096 -0.149458 -5.14096C-7.80723 -5.14096 -14.9369 -1.70817 -19.7277 4.28979L-21.3121 3.0261C-16.144 -3.46226 -8.42966 -7.17798 -0.149458 -7.17798C14.77 -7.17798 26.8979 4.94996 26.8979 19.8694C26.8979 34.7889 14.77 46.9168 -0.130577 46.9168Z" fill="#66BABA" fill-opacity="0.2"/>
</svg>
