<svg width="25" height="24" viewBox="0 0 25 24" fill="none" xmlns="http://www.w3.org/2000/svg">
<path d="M16.0923 3.0289C15.1801 2.04405 13.906 1.50171 12.4998 1.50171C11.086 1.50171 9.80775 2.04077 8.89978 3.01952C7.98197 4.00905 7.53478 5.3539 7.63978 6.80609C7.84791 9.67109 10.0281 12.0017 12.4998 12.0017C14.9715 12.0017 17.1479 9.67155 17.3593 6.80702C17.4657 5.36796 17.0157 4.02593 16.0923 3.0289ZM20.7498 22.5017H4.24978C4.03381 22.5045 3.81993 22.4592 3.6237 22.3689C3.42747 22.2787 3.25383 22.1458 3.1154 21.98C2.81072 21.6158 2.6879 21.1184 2.77884 20.6155C3.17447 18.4208 4.40916 16.5772 6.34978 15.283C8.07384 14.1341 10.2578 13.5017 12.4998 13.5017C14.7418 13.5017 16.9257 14.1345 18.6498 15.283C20.5904 16.5767 21.8251 18.4203 22.2207 20.615C22.3117 21.118 22.1888 21.6153 21.8842 21.9795C21.7458 22.1454 21.5722 22.2784 21.3759 22.3687C21.1797 22.459 20.9658 22.5045 20.7498 22.5017Z" fill="#B3B3B3"/>
</svg>
