<svg width="20" height="20" viewBox="0 0 20 20" fill="none" xmlns="http://www.w3.org/2000/svg">
<path d="M14.1452 12.7701L14.133 12.7863L14.1474 12.8007L17.8223 16.4757C17.9843 16.6572 18.0708 16.8938 18.064 17.137C18.0572 17.3805 17.9574 17.6121 17.7852 17.7843C17.613 17.9566 17.3814 18.0563 17.1379 18.0631C16.8947 18.0699 16.658 17.9834 16.4765 17.8214L12.8016 14.1465L12.7872 14.1321L12.771 14.1443C11.597 15.0261 10.1681 15.5022 8.6999 15.5006H8.69988C4.94954 15.5006 1.89832 12.4493 1.89832 8.69899C1.89832 4.94866 4.94954 1.89743 8.69988 1.89743C12.4502 1.89743 15.5014 4.94866 15.5014 8.69899V8.69902C15.503 10.1672 15.027 11.5962 14.1452 12.7701ZM8.69985 13.5974H8.69988C9.6687 13.5974 10.6158 13.3101 11.4213 12.7719C12.2268 12.2336 12.8547 11.4686 13.2254 10.5735C13.5962 9.67847 13.6932 8.69356 13.5042 7.74336C13.3152 6.79315 12.8487 5.92033 12.1636 5.23527C11.4785 4.55022 10.6057 4.08368 9.65552 3.89468C8.70531 3.70567 7.7204 3.80268 6.82533 4.17343C5.93025 4.54418 5.16522 5.17202 4.62698 5.97757C4.08873 6.78311 3.80144 7.73017 3.80144 8.69899H3.82488L3.80144 8.69902C3.803 9.99768 4.31958 11.2427 5.23787 12.161C6.15617 13.0793 7.40119 13.5959 8.69985 13.5974Z" fill="#B3B3B3" stroke="#B3B3B3" stroke-width="0.046875"/>
</svg>
